<svg width="25" height="25" viewBox="0 0 11 11" fill="none" xmlns="http://www.w3.org/2000/svg">
<g clip-path="url(#clip0_101_14)">
<path d="M5.5 0C4.41221 0 3.34884 0.322569 2.44437 0.926917C1.5399 1.53127 0.834947 2.39025 0.418665 3.39524C0.00238307 4.40024 -0.106535 5.5061 0.105683 6.573C0.317902 7.63989 0.841726 8.6199 1.61092 9.38909C2.3801 10.1583 3.36011 10.6821 4.42701 10.8943C5.4939 11.1065 6.59977 10.9976 7.60476 10.5813C8.60976 10.1651 9.46874 9.46011 10.0731 8.55564C10.6774 7.65117 11 6.5878 11 5.5C10.9984 4.04179 10.4185 2.64376 9.38735 1.61265C8.35624 0.581546 6.95821 0.00157716 5.5 0V0ZM5.5 10.0833C4.5935 10.0833 3.70736 9.81453 2.95364 9.3109C2.19991 8.80728 1.61246 8.09146 1.26555 7.25397C0.918653 6.41647 0.827888 5.49492 1.00474 4.60584C1.18159 3.71676 1.61811 2.90008 2.2591 2.25909C2.90009 1.6181 3.71676 1.18158 4.60584 1.00473C5.49492 0.827885 6.41647 0.918651 7.25397 1.26555C8.09146 1.61245 8.80728 2.19991 9.3109 2.95364C9.81453 3.70736 10.0833 4.5935 10.0833 5.5C10.082 6.71517 9.59869 7.88018 8.73944 8.73943C7.88018 9.59869 6.71517 10.082 5.5 10.0833Z" fill="white"/>
<path d="M5.8287 2.3204C5.5644 2.27225 5.29273 2.28277 5.03294 2.35122C4.77315 2.41968 4.53158 2.54439 4.32532 2.71654C4.11907 2.88869 3.95317 3.10407 3.83936 3.34744C3.72556 3.5908 3.66663 3.8562 3.66675 4.12486C3.66675 4.24642 3.71504 4.363 3.80099 4.44895C3.88694 4.53491 4.00352 4.5832 4.12508 4.5832C4.24664 4.5832 4.36322 4.53491 4.44917 4.44895C4.53512 4.363 4.58341 4.24642 4.58341 4.12486C4.5833 3.99001 4.61294 3.85679 4.67022 3.73471C4.7275 3.61263 4.81101 3.50469 4.9148 3.41858C5.01858 3.33248 5.14009 3.27034 5.27065 3.23659C5.40121 3.20284 5.53761 3.19831 5.67012 3.22332C5.85118 3.25847 6.01765 3.34679 6.14827 3.477C6.2789 3.60722 6.36774 3.77341 6.40345 3.95436C6.43952 4.1443 6.41462 4.34077 6.3323 4.5157C6.24998 4.69063 6.11446 4.83505 5.94512 4.92832C5.6647 5.09078 5.43297 5.32547 5.27409 5.60794C5.1152 5.8904 5.03497 6.21031 5.04175 6.53432V6.87486C5.04175 6.99642 5.09003 7.113 5.17599 7.19895C5.26194 7.28491 5.37852 7.3332 5.50008 7.3332C5.62164 7.3332 5.73821 7.28491 5.82417 7.19895C5.91012 7.113 5.95841 6.99642 5.95841 6.87486V6.53432C5.95266 6.37483 5.98903 6.21663 6.06386 6.07566C6.13869 5.93469 6.24933 5.81593 6.38466 5.73132C6.71673 5.54894 6.98414 5.26815 7.15011 4.92759C7.31609 4.58702 7.37248 4.2034 7.31154 3.82948C7.25059 3.45555 7.0753 3.1097 6.80976 2.83946C6.54423 2.56923 6.2015 2.3879 5.8287 2.3204Z" fill="white"/>
<path d="M5.95842 8.24984C5.95842 7.99671 5.75322 7.7915 5.50008 7.7915C5.24695 7.7915 5.04175 7.99671 5.04175 8.24984C5.04175 8.50297 5.24695 8.70818 5.50008 8.70818C5.75322 8.70818 5.95842 8.50297 5.95842 8.24984Z" fill="white"/>
</g>
<defs>
<clipPath id="clip0_101_14">
<rect width="11" height="11" fill="white"/>
</clipPath>
</defs>
</svg>
